{
    "accessors" : [
        {
            "bufferView" : 0,
            "componentType" : 5126,
            "count" : 12754,
            "max" : [
                2.130189895629883,
                0.3357580006122589,
                0.6570860147476196
            ],
            "min" : [
                -1.5872299671173096,
                -0.36262500286102295,
                -0.6393359899520874
            ],
            "type" : "VEC3"
        },
        {
            "bufferView" : 1,
            "componentType" : 5126,
            "count" : 12754,
            "type" : "VEC3"
        },
        {
            "bufferView" : 2,
            "componentType" : 5126,
            "count" : 12754,
            "type" : "VEC2"
        },
        {
            "bufferView" : 3,
            "componentType" : 5126,
            "count" : 12754,
            "type" : "VEC4"
        },
        {
            "bufferView" : 4,
            "componentType" : 5123,
            "count" : 70314,
            "type" : "SCALAR"
        }
    ],
    "asset" : {
        "generator" : "Khronos Blender glTF 2.0 I/O",
        "version" : "2.0"
    },
    "bufferViews" : [
        {
            "buffer" : 0,
            "byteLength" : 153048,
            "byteOffset" : 0
        },
        {
            "buffer" : 0,
            "byteLength" : 153048,
            "byteOffset" : 153048
        },
        {
            "buffer" : 0,
            "byteLength" : 102032,
            "byteOffset" : 306096
        },
        {
            "buffer" : 0,
            "byteLength" : 204064,
            "byteOffset" : 408128
        },
        {
            "buffer" : 0,
            "byteLength" : 140628,
            "byteOffset" : 612192
        },
        {
            "buffer" : 0,
            "byteLength" : 1611876,
            "byteOffset" : 752820
        }
    ],
    "buffers" : [
        {
            "byteLength" : 2364696,
            "uri" : "data:application/octet-stream;base64,"
        }
    ],
    "extensions" : {},
    "images" : [
        {
            "bufferView" : 5,
            "mimeType" : "image/png",
            "name" : "lion_diffuse_comp.png"
        }
    ],
    "materials" : [
        {
            "name" : "diffuse_comp",
            "pbrMetallicRoughness" : {
                "baseColorTexture" : {
                    "index" : 0,
                    "texCoord" : 0
                },
                "metallicFactor" : 0,
                "roughnessFactor" : 1
            }
        }
    ],
    "meshes" : [
        {
            "name" : "lion-statue-optimised.001",
            "primitives" : [
                {
                    "attributes" : {
                        "COLOR_0" : 3,
                        "NORMAL" : 1,
                        "POSITION" : 0,
                        "TEXCOORD_0" : 2
                    },
                    "indices" : 4,
                    "material" : 0
                }
            ]
        }
    ],
    "nodes" : [
        {
            "mesh" : 0,
            "name" : "lion-statue-optimised.001",
            "rotation" : [
                0.7071068286895752,
                0,
                0,
                0.7071067094802856
            ]
        }
    ],
    "scene" : 0,
    "scenes" : [
        {
            "name" : "Scene",
            "nodes" : [
                0
            ]
        }
    ],
    "textures" : [
        {
            "source" : 0
        }
    ]
}
