{
    "accessors" : [
        {
            "bufferView" : 0,
            "componentType" : 5123,
            "count" : 180000,
            "max" : [
                32663
            ],
            "min" : [
                0
            ],
            "type" : "SCALAR"
        },
        {
            "bufferView" : 1,
            "componentType" : 5126,
            "count" : 32664,
            "max" : [
                1.4563392400741577,
                1.1561503410339355,
                1.2265903949737549
            ],
            "min" : [
                -1.3453227281570435,
                -1.2392346858978271,
                -1.114162564277649
            ],
            "type" : "VEC3"
        },
        {
            "bufferView" : 2,
            "componentType" : 5126,
            "count" : 32664,
            "max" : [
                0.99993896484375,
                0.999969482421875,
                0.99957275390625
            ],
            "min" : [
                -0.99993896484375,
                -0.999908447265625,
                -0.999969482421875
            ],
            "type" : "VEC3"
        },
        {
            "bufferView" : 3,
            "componentType" : 5126,
            "count" : 32664,
            "max" : [
                0.9992424249649048,
                0.9995265603065491,
                0.9999786615371704,
                1.0
            ],
            "min" : [
                -0.946278989315033,
                -0.9999203681945801,
                -0.9998957514762878,
                -1.0
            ],
            "type" : "VEC4"
        },
        {
            "bufferView" : 4,
            "componentType" : 5126,
            "count" : 32664,
            "max" : [
                0.9943050146102905,
                0.9962379999924451
            ],
            "min" : [
                0.0039059999398887157,
                0.0011469721794128418
            ],
            "type" : "VEC2"
        },
        {
            "bufferView" : 5,
            "componentType" : 5123,
            "count" : 107142,
            "max" : [
                20055
            ],
            "min" : [
                0
            ],
            "type" : "SCALAR"
        },
        {
            "bufferView" : 6,
            "componentType" : 5126,
            "count" : 20056,
            "max" : [
                4.709967136383057,
                9.407411575317383,
                9.530999183654785
            ],
            "min" : [
                -3.996764898300171,
                -5.436969757080078,
                -8.407657623291016
            ],
            "type" : "VEC3"
        },
        {
            "bufferView" : 7,
            "componentType" : 5126,
            "count" : 20056,
            "max" : [
                0.999969482421875,
                0.999969482421875,
                0.99993896484375
            ],
            "min" : [
                -0.999969482421875,
                -0.999969482421875,
                -0.999969482421875
            ],
            "type" : "VEC3"
        },
        {
            "bufferView" : 8,
            "componentType" : 5126,
            "count" : 20056,
            "max" : [
                0.9720143675804138,
                0.9718144312500954
            ],
            "min" : [
                0.02798568084836006,
                0.028185546398162842
            ],
            "type" : "VEC2"
        }
    ],
    "asset" : {
        "generator" : "Khronos Blender glTF 2.0 exporter",
        "version" : "2.0"
    },
    "bufferViews" : [
        {
            "buffer" : 0,
            "byteLength" : 360000,
            "byteOffset" : 0,
            "target" : 34963
        },
        {
            "buffer" : 0,
            "byteLength" : 391968,
            "byteOffset" : 360000,
            "target" : 34962
        },
        {
            "buffer" : 0,
            "byteLength" : 391968,
            "byteOffset" : 751968,
            "target" : 34962
        },
        {
            "buffer" : 0,
            "byteLength" : 522624,
            "byteOffset" : 1143936,
            "target" : 34962
        },
        {
            "buffer" : 0,
            "byteLength" : 261312,
            "byteOffset" : 1666560,
            "target" : 34962
        },
        {
            "buffer" : 0,
            "byteLength" : 214284,
            "byteOffset" : 1927872,
            "target" : 34963
        },
        {
            "buffer" : 0,
            "byteLength" : 240672,
            "byteOffset" : 2142156,
            "target" : 34962
        },
        {
            "buffer" : 0,
            "byteLength" : 240672,
            "byteOffset" : 2382828,
            "target" : 34962
        },
        {
            "buffer" : 0,
            "byteLength" : 160448,
            "byteOffset" : 2623500,
            "target" : 34962
        }
    ],
    "buffers" : [
        {
            "byteLength" : 2783948,
            "uri" : "headrest.bin"
        }
    ],
    "images" : [
        {
            "name" : "diffuse",
            "uri" : "diffuse.jpg"
        },
        {
            "name" : "normal",
            "uri" : "normal.jpg"
        }
    ],
    "materials" : [
        {
            "emissiveTexture" : {
                "index" : 0
            },
            "name" : "diffuse",
            "pbrMetallicRoughness" : {
                "baseColorFactor" : [
                    0.6400000190734865,
                    0.6400000190734865,
                    0.6400000190734865,
                    1.0
                ],
                "baseColorTexture" : {
                    "index" : 0
                },
                "metallicFactor" : 0.0
            }
        },
        {
            "alphaMode" : "BLEND",
            "name" : "head-rest",
            "pbrMetallicRoughness" : {
                "metallicFactor" : 0.0
            }
        },
        {
            "name" : "normals",
            "normalTexture" : {
                "index" : 1
            },
            "pbrMetallicRoughness" : {
                "baseColorFactor" : [
                    0.6400000190734865,
                    0.6400000190734865,
                    0.6400000190734865,
                    1.0
                ],
                "metallicFactor" : 0.0
            }
        }
    ],
    "meshes" : [
        {
            "name" : "head-rest",
            "primitives" : [
                {
                    "attributes" : {
                        "NORMAL" : 2,
                        "POSITION" : 1,
                        "TANGENT" : 3,
                        "TEXCOORD_0" : 4
                    },
                    "indices" : 0,
                    "material" : 1
                }
            ]
        },
        {
            "name" : "headrest-mesh-optimised",
            "primitives" : [
                {
                    "attributes" : {
                        "NORMAL" : 7,
                        "POSITION" : 6,
                        "TEXCOORD_0" : 8
                    },
                    "indices" : 5,
                    "material" : 0
                }
            ]
        }
    ],
    "nodes" : [
        {
            "mesh" : 0,
            "name" : "head-rest-high",
            "rotation" : [
                0.23777982592582703,
                0.7374051809310913,
                -0.23450526595115662,
                0.5871130228042603
            ],
            "translation" : [
                0.2696317434310913,
                0.2679206132888794,
                0.04968905448913574
            ]
        },
        {
            "mesh" : 1,
            "name" : "headrest-low"
        }
    ],
    "samplers" : [
        {}
    ],
    "scene" : 0,
    "scenes" : [
        {
            "name" : "Scene",
            "nodes" : [
                1,
                0
            ]
        }
    ],
    "textures" : [
        {
            "sampler" : 0,
            "source" : 0
        },
        {
            "sampler" : 0,
            "source" : 1
        }
    ]
}
