{
    "accessors" : [
        {
            "bufferView" : 0,
            "componentType" : 5126,
            "count" : 4865,
            "max" : [
                10.180976867675781,
                9.9143648147583,
                4.8291192054748535
            ],
            "min" : [
                -10.031723976135254,
                -10.11879825592041,
                -8.638660430908203
            ],
            "type" : "VEC3"
        },
        {
            "bufferView" : 1,
            "componentType" : 5126,
            "count" : 4865,
            "type" : "VEC3"
        },
        {
            "bufferView" : 2,
            "componentType" : 5126,
            "count" : 4865,
            "type" : "VEC2"
        },
        {
            "bufferView" : 3,
            "componentType" : 5123,
            "count" : 27684,
            "type" : "SCALAR"
        }
    ],
    "asset" : {
        "generator" : "Khronos Blender glTF 2.0 I/O",
        "version" : "2.0"
    },
    "bufferViews" : [
        {
            "buffer" : 0,
            "byteLength" : 58380,
            "byteOffset" : 0
        },
        {
            "buffer" : 0,
            "byteLength" : 58380,
            "byteOffset" : 58380
        },
        {
            "buffer" : 0,
            "byteLength" : 38920,
            "byteOffset" : 116760
        },
        {
            "buffer" : 0,
            "byteLength" : 55368,
            "byteOffset" : 155680
        },
        {
            "buffer" : 0,
            "byteLength" : 1089079,
            "byteOffset" : 211048
        },
        {
            "buffer" : 0,
            "byteLength" : 1150747,
            "byteOffset" : 1300128
        }
    ],
    "buffers" : [
        {
            "byteLength" : 2450876,
            "uri" : "data:application/octet-stream;base64,"
        }
    ],
    "extensions" : {},
    "images" : [
        {
            "bufferView" : 4,
            "mimeType" : "image/png",
            "name" : "lid_normals.png"
        },
        {
            "bufferView" : 5,
            "mimeType" : "image/png",
            "name" : "lid_diffuse.png.002"
        }
    ],
    "materials" : [
        {
            "name" : "diffuse_normal",
            "normalTexture" : {
                "index" : 0,
                "texCoord" : 0
            },
            "pbrMetallicRoughness" : {
                "baseColorTexture" : {
                    "index" : 1,
                    "texCoord" : 0
                },
                "metallicFactor" : 0,
                "roughnessFactor" : 1
            }
        }
    ],
    "meshes" : [
        {
            "name" : "lid-optimised",
            "primitives" : [
                {
                    "attributes" : {
                        "NORMAL" : 1,
                        "POSITION" : 0,
                        "TEXCOORD_0" : 2
                    },
                    "indices" : 3,
                    "material" : 0
                }
            ]
        }
    ],
    "nodes" : [
        {
            "mesh" : 0,
            "name" : "lid-optimised",
            "rotation" : [
                0.7071068286895752,
                0,
                0,
                0.7071067094802856
            ]
        }
    ],
    "scene" : 0,
    "scenes" : [
        {
            "name" : "Scene",
            "nodes" : [
                0
            ]
        }
    ],
    "textures" : [
        {
            "source" : 0
        },
        {
            "source" : 1
        }
    ]
}
