{"accessors":[{"bufferView":0,"componentType":5123,"count":27681,"max":[4863],"min":[0],"type":"SCALAR"},{"bufferView":1,"componentType":5126,"count":4864,"max":[1.832200050354004,1.7842199802398682,0.8690630197525024],"min":[-1.805340051651001,-1.8210099935531616,-1.5546400547027588],"type":"VEC3"},{"bufferView":2,"componentType":5126,"count":4864,"max":[0.9969176054000854,0.9984435439109802,0.999908447265625],"min":[-0.9988097548484802,-0.9998779296875,-0.999786376953125],"type":"VEC3"},{"bufferView":3,"componentType":5126,"count":4864,"max":[0.9998615384101868,0.9998615443182644],"min":[0.0001384556817356497,0.158391535282135],"type":"VEC2"}],"asset":{"generator":"Khronos Blender glTF 2.0 exporter","version":"2.0"},"bufferViews":[{"buffer":0,"byteLength":55362,"byteOffset":0,"target":34963},{"buffer":0,"byteLength":58368,"byteOffset":55364,"target":34962},{"buffer":0,"byteLength":58368,"byteOffset":113732,"target":34962},{"buffer":0,"byteLength":38912,"byteOffset":172100,"target":34962}],"buffers":[{"byteLength":211012,"uri":"data:application/octet-stream;base64,"}],"images":[{"mimeType":"image/png","name":"diffuse","uri":"data:image/png;base64,"},{"mimeType":"image/png","name":"normals","uri":"data:image/png;base64,"}],"materials":[{"emissiveTexture":{"index":0},"name":"diffuse","pbrMetallicRoughness":{"baseColorFactor":[0.6400000190734865,0.6400000190734865,0.6400000190734865,1.0],"baseColorTexture":{"index":0},"metallicFactor":0.0}},{"name":"normals","normalTexture":{"index":1},"pbrMetallicRoughness":{"baseColorFactor":[0.6400000190734865,0.6400000190734865,0.6400000190734865,1.0],"metallicFactor":0.0}}],"meshes":[{"name":"lid-optimised","primitives":[{"attributes":{"NORMAL":2,"POSITION":1,"TEXCOORD_0":3},"indices":0,"material":0}]}],"nodes":[{"mesh":0,"name":"lid-optimised","rotation":[0.7071068286895752,0.0,-0.0,0.7071067094802856],"scale":[5.556694984436035,5.556694984436035,5.556694984436035]}],"samplers":[{}],"scene":0,"scenes":[{"name":"Scene","nodes":[0]}],"textures":[{"sampler":0,"source":0},{"sampler":0,"source":1}]}
