{"accessors":[{"bufferView":0,"componentType":5126,"count":6762,"max":[1.4389699697494507,1.4292199611663818,0.4395110011100769],"min":[-1.4615199565887451,-1.4026299715042114,-0.31045401096343994],"type":"VEC3"},{"bufferView":1,"componentType":5126,"count":6762,"type":"VEC3"},{"bufferView":2,"componentType":5126,"count":6762,"type":"VEC2"},{"bufferView":3,"componentType":5123,"count":31350,"type":"SCALAR"}],"asset":{"generator":"Khronos Blender glTF 2.0 I/O","version":"2.0"},"bufferViews":[{"buffer":0,"byteLength":81144,"byteOffset":0},{"buffer":0,"byteLength":81144,"byteOffset":81144},{"buffer":0,"byteLength":54096,"byteOffset":162288},{"buffer":0,"byteLength":62700,"byteOffset":216384}],"buffers":[{"byteLength":279084,"uri":"data:application/octet-stream;base64,"}],"extensions":{},"images":[{"mimeType":"image/png","name":"bowl_normals.png","uri":"bowl_normals.png"},{"mimeType":"image/png","name":"bowl-diffuse.png","uri":"bowl-diffuse.png"}],"materials":[{"normalTexture":{"index":0,"texCoord":0},"pbrMetallicRoughness":{"baseColorFactor":[0.6399999856948853,0.6399999856948853,0.6399999856948853,1],"baseColorTexture":{"index":1,"texCoord":0},"metallicFactor":0,"roughnessFactor":1}}],"meshes":[{"name":"bowl-cyreal-optimised","primitives":[{"attributes":{"NORMAL":1,"POSITION":0,"TEXCOORD_0":2},"indices":3,"material":0}]}],"nodes":[{"mesh":0,"name":"bowl-cyreal-optimised","rotation":[0.7071068286895752,0,0,0.7071067094802856]}],"scene":0,"scenes":[{"name":"Scene","nodes":[0]}],"textures":[{"source":0},{"source":1}]}
