{
    "accessors" : [
        {
            "bufferView" : 0, 
            "componentType" : 5123, 
            "count" : 107142, 
            "max" : [
                20055
            ], 
            "min" : [
                0
            ], 
            "type" : "SCALAR"
        }, 
        {
            "bufferView" : 1, 
            "componentType" : 5126, 
            "count" : 20056, 
            "max" : [
                0.9883300065994263, 
                1.4752899408340454, 
                0.8415809869766235
            ], 
            "min" : [
                -0.3593730032444, 
                -1.3014099597930908, 
                -1.4561599493026733
            ], 
            "type" : "VEC3"
        }, 
        {
            "bufferView" : 2, 
            "componentType" : 5126, 
            "count" : 20056, 
            "max" : [
                0.999969482421875, 
                0.99993896484375, 
                0.999969482421875
            ], 
            "min" : [
                -0.999969482421875, 
                -0.999969482421875, 
                -0.999969482421875
            ], 
            "type" : "VEC3"
        }, 
        {
            "bufferView" : 3, 
            "componentType" : 5126, 
            "count" : 20056, 
            "max" : [
                0.9720143675804138, 
                0.9718144312500954
            ], 
            "min" : [
                0.02798568084836006, 
                0.028185546398162842
            ], 
            "type" : "VEC2"
        }
    ], 
    "asset" : {
        "generator" : "Khronos Blender glTF 2.0 exporter", 
        "version" : "2.0"
    }, 
    "bufferViews" : [
        {
            "buffer" : 0, 
            "byteLength" : 214284, 
            "byteOffset" : 0, 
            "target" : 34963
        }, 
        {
            "buffer" : 0, 
            "byteLength" : 240672, 
            "byteOffset" : 214284, 
            "target" : 34962
        }, 
        {
            "buffer" : 0, 
            "byteLength" : 240672, 
            "byteOffset" : 454956, 
            "target" : 34962
        }, 
        {
            "buffer" : 0, 
            "byteLength" : 160448, 
            "byteOffset" : 695628, 
            "target" : 34962
        }
    ], 
    "buffers" : [
        {
            "byteLength" : 856076, 
            "uri" : "headrest-optimised.bin"
        }
    ], 
    "images" : [
        {
            "name" : "diffuse", 
            "uri" : "diffuse.jpg"
        }, 
        {
            "name" : "normal", 
            "uri" : "normal.jpg"
        }
    ], 
    "materials" : [
        {
            "emissiveTexture" : {
                "index" : 0
            }, 
            "name" : "diffuse", 
            "pbrMetallicRoughness" : {
                "baseColorFactor" : [
                    0.6400000190734865, 
                    0.6400000190734865, 
                    0.6400000190734865, 
                    1.0
                ], 
                "baseColorTexture" : {
                    "index" : 0
                }, 
                "metallicFactor" : 0.0
            }
        }, 
        {
            "name" : "normals", 
            "normalTexture" : {
                "index" : 1
            }, 
            "pbrMetallicRoughness" : {
                "baseColorFactor" : [
                    0.6400000190734865, 
                    0.6400000190734865, 
                    0.6400000190734865, 
                    1.0
                ], 
                "metallicFactor" : 0.0
            }
        }
    ], 
    "meshes" : [
        {
            "name" : "headrest-mesh-optimised", 
            "primitives" : [
                {
                    "attributes" : {
                        "NORMAL" : 2, 
                        "POSITION" : 1, 
                        "TEXCOORD_0" : 3
                    }, 
                    "indices" : 0, 
                    "material" : 0
                }
            ]
        }
    ], 
    "nodes" : [
        {
            "mesh" : 0, 
            "name" : "headrest-low", 
            "rotation" : [
                0.7071068286895752, 
                0.0, 
                -0.0, 
                0.7071067094802856
            ]
        }
    ], 
    "samplers" : [
        {}
    ], 
    "scene" : 0, 
    "scenes" : [
        {
            "name" : "Scene", 
            "nodes" : [
                0
            ]
        }
    ], 
    "textures" : [
        {
            "sampler" : 0, 
            "source" : 0
        }, 
        {
            "sampler" : 0, 
            "source" : 1
        }
    ]
}
