{"accessors":[{"bufferView":0,"componentType":5123,"count":112623,"max":[24020],"min":[0],"type":"SCALAR"},{"bufferView":1,"componentType":5126,"count":24021,"max":[1.8560099601745605,1.8072799444198608,1.5501400232315063],"min":[-1.7937500476837158,-1.812440037727356,-0.8814370036125183],"type":"VEC3"},{"bufferView":2,"componentType":5126,"count":24021,"max":[0.999969482421875,0.999969482421875,0.999847412109375],"min":[-0.999786376953125,-0.999969482421875,-0.999969482421875],"type":"VEC3"},{"bufferView":3,"componentType":5126,"count":24021,"max":[0.9925870299339294,0.9925946909934282],"min":[0.007412998005747795,0.007405281066894531],"type":"VEC2"}],"asset":{"generator":"Khronos Blender glTF 2.0 exporter","version":"2.0"},"bufferViews":[{"buffer":0,"byteLength":225246,"byteOffset":0,"target":34963},{"buffer":0,"byteLength":288252,"byteOffset":225248,"target":34962},{"buffer":0,"byteLength":288252,"byteOffset":513500,"target":34962},{"buffer":0,"byteLength":192168,"byteOffset":801752,"target":34962}],"buffers":[{"byteLength":993920,"uri":"data:application/octet-stream;base64,"}],"images":[{"mimeType":"image/jpeg","name":"serving-dish_normal","uri":"data:image/jpeg;base64,"},{"mimeType":"image/jpeg","name":"serving-dish_texture","uri":"data:image/jpeg;base64,"}],"materials":[{"name":"normal.003","normalTexture":{"index":0},"pbrMetallicRoughness":{"baseColorFactor":[0.6400000190734865,0.6400000190734865,0.6400000190734865,1.0],"metallicFactor":0.0}},{"emissiveTexture":{"index":1},"name":"texture","pbrMetallicRoughness":{"baseColorFactor":[0.6400000190734865,0.6400000190734865,0.6400000190734865,1.0],"baseColorTexture":{"index":1},"metallicFactor":0.0}}],"meshes":[{"name":"serving-dish.002","primitives":[{"attributes":{"NORMAL":2,"POSITION":1,"TEXCOORD_0":3},"indices":0,"material":1}]}],"nodes":[{"mesh":0,"name":"low-res","rotation":[-0.6807112693786621,0.19520239531993866,0.17062145471572876,0.6851398944854736],"scale":[0.9999999403953552,1.0,1.0]}],"samplers":[{}],"scene":0,"scenes":[{"name":"Scene","nodes":[0]}],"textures":[{"sampler":0,"source":0},{"sampler":0,"source":1}]}
