{"accessors":[{"bufferView":0,"componentType":5123,"count":107142,"max":[20055],"min":[0],"type":"SCALAR"},{"bufferView":1,"componentType":5126,"count":20056,"max":[0.7142120599746704,1.4357414245605469,1.1098711490631104],"min":[-0.6334909200668335,-1.3409584760665894,-1.1878697872161865],"type":"VEC3"},{"bufferView":2,"componentType":5126,"count":20056,"max":[0.999969482421875,0.99993896484375,0.999969482421875],"min":[-0.999969482421875,-0.999969482421875,-0.999969482421875],"type":"VEC3"},{"bufferView":3,"componentType":5126,"count":20056,"max":[0.9720143675804138,0.9718144312500954],"min":[0.02798568084836006,0.028185546398162842],"type":"VEC2"}],"asset":{"generator":"Khronos Blender glTF 2.0 exporter","version":"2.0"},"bufferViews":[{"buffer":0,"byteLength":214284,"byteOffset":0,"target":34963},{"buffer":0,"byteLength":240672,"byteOffset":214284,"target":34962},{"buffer":0,"byteLength":240672,"byteOffset":454956,"target":34962},{"buffer":0,"byteLength":160448,"byteOffset":695628,"target":34962}],"buffers":[{"byteLength":856076,"uri":"data:application/octet-stream;base64,"}],"images":[{"mimeType":"image/jpeg","name":"diffuse","uri":"data:image/jpeg;base64,"},{"mimeType":"image/jpeg","name":"normal","uri":"data:image/jpeg;base64,"}],"materials":[{"emissiveTexture":{"index":0},"name":"diffuse","pbrMetallicRoughness":{"baseColorFactor":[0.6400000190734865,0.6400000190734865,0.6400000190734865,1.0],"baseColorTexture":{"index":0},"metallicFactor":0.0}},{"name":"normals","normalTexture":{"index":1},"pbrMetallicRoughness":{"baseColorFactor":[0.6400000190734865,0.6400000190734865,0.6400000190734865,1.0],"metallicFactor":0.0}}],"meshes":[{"name":"headrest-mesh-optimised","primitives":[{"attributes":{"NORMAL":2,"POSITION":1,"TEXCOORD_0":3},"indices":0,"material":0}]}],"nodes":[{"mesh":0,"name":"headrest-low","rotation":[0.7071068286895752,0.0,-0.0,0.7071067094802856],"scale":[6.460423469543457,6.460423469543457,6.460423469543457],"translation":[0.0958547294139862,1.733267903327942,0.2555007040500641]}],"samplers":[{}],"scene":0,"scenes":[{"name":"Scene","nodes":[0]}],"textures":[{"sampler":0,"source":0},{"sampler":0,"source":1}]}
