{"accessors":[{"bufferView":0,"componentType":5123,"count":124224,"max":[23605],"min":[0],"type":"SCALAR"},{"bufferView":1,"componentType":5126,"count":23606,"max":[5.432139873504639,5.477290153503418,-0.14975599944591522],"min":[-7.604949951171875,-5.273399829864502,-18.758499145507812],"type":"VEC3"},{"bufferView":2,"componentType":5126,"count":23606,"max":[0.99932861328125,0.99993896484375,0.999969482421875],"min":[-0.9998779296875,-0.999664306640625,-0.99993896484375],"type":"VEC3"},{"bufferView":3,"componentType":5126,"count":23606,"max":[0.9912755489349365,0.9913117280229926],"min":[0.008724472485482693,0.008688271045684814],"type":"VEC2"}],"asset":{"generator":"Khronos Blender glTF 2.0 exporter","version":"2.0"},"bufferViews":[{"buffer":0,"byteLength":248448,"byteOffset":0,"target":34963},{"buffer":0,"byteLength":283272,"byteOffset":248448,"target":34962},{"buffer":0,"byteLength":283272,"byteOffset":531720,"target":34962},{"buffer":0,"byteLength":188848,"byteOffset":814992,"target":34962}],"buffers":[{"byteLength":1003840,"uri":"data:application/octet-stream;base64,"}],"images":[{"mimeType":"image/jpeg","name":"diffuse","uri":"data:image/jpeg;base64,"}],"materials":[{"emissiveTexture":{"index":0},"name":"diffuse","pbrMetallicRoughness":{"baseColorFactor":[0.6400000190734865,0.6400000190734865,0.6400000190734865,1.0],"baseColorTexture":{"index":0},"metallicFactor":0.0}},{"name":"normals","pbrMetallicRoughness":{"baseColorFactor":[0.6400000190734865,0.6400000190734865,0.6400000190734865,1.0],"metallicFactor":0.0}}],"meshes":[{"name":"incense-burner-optimised","primitives":[{"attributes":{"NORMAL":2,"POSITION":1,"TEXCOORD_0":3},"indices":0,"material":0}]}],"nodes":[{"mesh":0,"name":"low","rotation":[0.7071068286895752,0.0,-0.0,0.7071067094802856]}],"samplers":[{}],"scene":0,"scenes":[{"name":"Scene","nodes":[0]}],"textures":[{"sampler":0,"source":0}]}
