{
    "accessors" : [
        {
            "bufferView" : 0, 
            "componentType" : 5123, 
            "count" : 169764, 
            "max" : [
                29158
            ], 
            "min" : [
                0
            ], 
            "type" : "SCALAR"
        }, 
        {
            "bufferView" : 1, 
            "componentType" : 5126, 
            "count" : 29159, 
            "max" : [
                4.268025875091553, 
                7.463983535766602, 
                4.600400924682617
            ], 
            "min" : [
                -4.2354350090026855, 
                -4.405795097351074, 
                -3.96331524848938
            ], 
            "type" : "VEC3"
        }, 
        {
            "bufferView" : 2, 
            "componentType" : 5126, 
            "count" : 29159, 
            "max" : [
                0.99981689453125, 
                0.9996337890625, 
                0.999969482421875
            ], 
            "min" : [
                -0.99993896484375, 
                -0.999969482421875, 
                -0.999969482421875
            ], 
            "type" : "VEC3"
        }, 
        {
            "bufferView" : 3, 
            "componentType" : 5126, 
            "count" : 29159, 
            "max" : [
                0.9999728202819824, 
                0.9977133274078369, 
                0.9964296221733093, 
                1.0
            ], 
            "min" : [
                -0.9723665118217468, 
                -0.9980566501617432, 
                -0.9974009394645691, 
                1.0
            ], 
            "type" : "VEC4"
        }, 
        {
            "bufferView" : 4, 
            "componentType" : 5126, 
            "count" : 29159, 
            "max" : [
                0.9811710119247437, 
                0.9960940000601113
            ], 
            "min" : [
                0.0039059999398887157, 
                0.004526972770690918
            ], 
            "type" : "VEC2"
        }, 
        {
            "bufferView" : 5, 
            "componentType" : 5123, 
            "count" : 77964, 
            "max" : [
                13928
            ], 
            "min" : [
                0
            ], 
            "type" : "SCALAR"
        }, 
        {
            "bufferView" : 6, 
            "componentType" : 5126, 
            "count" : 13929, 
            "max" : [
                3.8379199504852295, 
                3.414639949798584, 
                4.4273200035095215
            ], 
            "min" : [
                -4.664919853210449, 
                -4.8447699546813965, 
                -7.549180030822754
            ], 
            "type" : "VEC3"
        }, 
        {
            "bufferView" : 7, 
            "componentType" : 5126, 
            "count" : 13929, 
            "max" : [
                0.9998779296875, 
                0.99993896484375, 
                0.999969482421875
            ], 
            "min" : [
                -0.999786376953125, 
                -0.99993896484375, 
                -0.999969482421875
            ], 
            "type" : "VEC3"
        }, 
        {
            "bufferView" : 8, 
            "componentType" : 5126, 
            "count" : 13929, 
            "max" : [
                0.9898855686187744, 
                0.9900710443034768
            ], 
            "min" : [
                0.010114435106515884, 
                0.00992894172668457
            ], 
            "type" : "VEC2"
        }
    ], 
    "asset" : {
        "generator" : "Khronos Blender glTF 2.0 exporter", 
        "version" : "2.0"
    }, 
    "bufferViews" : [
        {
            "buffer" : 0, 
            "byteLength" : 339528, 
            "byteOffset" : 0, 
            "target" : 34963
        }, 
        {
            "buffer" : 0, 
            "byteLength" : 349908, 
            "byteOffset" : 339528, 
            "target" : 34962
        }, 
        {
            "buffer" : 0, 
            "byteLength" : 349908, 
            "byteOffset" : 689436, 
            "target" : 34962
        }, 
        {
            "buffer" : 0, 
            "byteLength" : 466544, 
            "byteOffset" : 1039344, 
            "target" : 34962
        }, 
        {
            "buffer" : 0, 
            "byteLength" : 233272, 
            "byteOffset" : 1505888, 
            "target" : 34962
        }, 
        {
            "buffer" : 0, 
            "byteLength" : 155928, 
            "byteOffset" : 1739160, 
            "target" : 34963
        }, 
        {
            "buffer" : 0, 
            "byteLength" : 167148, 
            "byteOffset" : 1895088, 
            "target" : 34962
        }, 
        {
            "buffer" : 0, 
            "byteLength" : 167148, 
            "byteOffset" : 2062236, 
            "target" : 34962
        }, 
        {
            "buffer" : 0, 
            "byteLength" : 111432, 
            "byteOffset" : 2229384, 
            "target" : 34962
        }
    ], 
    "buffers" : [
        {
            "byteLength" : 2340816, 
            "uri" : "gourd-optimised.bin"
        }
    ], 
    "images" : [
        {
            "mimeType" : "image/jpeg", 
            "name" : "gourd_diffuse", 
            "uri" : "data:image/jpeg;base64,"
        }, 
        {
            "mimeType" : "image/jpeg", 
            "name" : "gourd", 
            "uri" : "data:image/jpeg;base64,"
        }, 
        {
            "mimeType" : "image/jpeg", 
            "name" : "gourd_normal", 
            "uri" : "data:image/jpeg;base64,"
        }
    ], 
    "materials" : [
        {
            "name" : "diffuse", 
            "pbrMetallicRoughness" : {
                "baseColorFactor" : [
                    0.6400000190734865, 
                    0.6400000190734865, 
                    0.6400000190734865, 
                    1.0
                ], 
                "baseColorTexture" : {
                    "index" : 0
                }, 
                "metallicFactor" : 0.0
            }
        }, 
        {
            "alphaMode" : "BLEND", 
            "name" : "gourd", 
            "pbrMetallicRoughness" : {
                "baseColorTexture" : {
                    "index" : 1
                }, 
                "metallicFactor" : 0.0
            }
        }, 
        {
            "name" : "normal.001", 
            "pbrMetallicRoughness" : {
                "baseColorFactor" : [
                    0.6400000190734865, 
                    0.6400000190734865, 
                    0.6400000190734865, 
                    1.0
                ], 
                "baseColorTexture" : {
                    "index" : 2
                }, 
                "metallicFactor" : 0.0
            }
        }
    ], 
    "meshes" : [
        {
            "name" : "gourd", 
            "primitives" : [
                {
                    "attributes" : {
                        "NORMAL" : 2, 
                        "POSITION" : 1, 
                        "TANGENT" : 3, 
                        "TEXCOORD_0" : 4
                    }, 
                    "indices" : 0, 
                    "material" : 1
                }
            ]
        }, 
        {
            "name" : "gourd-optimised.001", 
            "primitives" : [
                {
                    "attributes" : {
                        "NORMAL" : 7, 
                        "POSITION" : 6, 
                        "TEXCOORD_0" : 8
                    }, 
                    "indices" : 5, 
                    "material" : 0
                }
            ]
        }
    ], 
    "nodes" : [
        {
            "mesh" : 0, 
            "name" : "gourd", 
            "rotation" : [
                0.23235176503658295, 
                -0.0027075798716396093, 
                0.004065294284373522, 
                0.9726195931434631
            ], 
            "scale" : [
                0.9999999403953552, 
                1.0, 
                0.9999999403953552
            ], 
            "translation" : [
                -0.43350696563720703, 
                -0.24796706438064575, 
                -0.8716411590576172
            ]
        }, 
        {
            "mesh" : 1, 
            "name" : "gourd-optimised.001", 
            "rotation" : [
                0.7071068286895752, 
                0.0, 
                -0.0, 
                0.7071067094802856
            ]
        }
    ], 
    "samplers" : [
        {}
    ], 
    "scene" : 0, 
    "scenes" : [
        {
            "name" : "Scene", 
            "nodes" : [
                1, 
                0
            ]
        }
    ], 
    "textures" : [
        {
            "sampler" : 0, 
            "source" : 0
        }, 
        {
            "sampler" : 0, 
            "source" : 1
        }, 
        {
            "sampler" : 0, 
            "source" : 2
        }
    ]
}
