{
    "accessors" : [
        {
            "bufferView" : 0,
            "componentType" : 5126,
            "count" : 8084,
            "max" : [
                11.06820011138916,
                10.387500762939453,
                20.672435760498047
            ],
            "min" : [
                -10.875100135803223,
                -11.105400085449219,
                -29.55101776123047
            ],
            "type" : "VEC3"
        },
        {
            "bufferView" : 1,
            "componentType" : 5126,
            "count" : 8084,
            "type" : "VEC3"
        },
        {
            "bufferView" : 2,
            "componentType" : 5126,
            "count" : 8084,
            "type" : "VEC2"
        },
        {
            "bufferView" : 3,
            "componentType" : 5123,
            "count" : 37308,
            "type" : "SCALAR"
        }
    ],
    "asset" : {
        "generator" : "Khronos Blender glTF 2.0 I/O",
        "version" : "2.0"
    },
    "bufferViews" : [
        {
            "buffer" : 0,
            "byteLength" : 97008,
            "byteOffset" : 0
        },
        {
            "buffer" : 0,
            "byteLength" : 97008,
            "byteOffset" : 97008
        },
        {
            "buffer" : 0,
            "byteLength" : 64672,
            "byteOffset" : 194016
        },
        {
            "buffer" : 0,
            "byteLength" : 74616,
            "byteOffset" : 258688
        },
        {
            "buffer" : 0,
            "byteLength" : 2706524,
            "byteOffset" : 333304
        }
    ],
    "buffers" : [
        {
            "byteLength" : 3039828,
            "uri" : "data:application/octet-stream;base64,"
        }
    ],
    "extensions" : {},
    "images" : [
        {
            "bufferView" : 4,
            "mimeType" : "image/png",
            "name" : "Texture"
        }
    ],
    "materials" : [
        {
            "name" : "Material.002",
            "pbrMetallicRoughness" : {
                "baseColorTexture" : {
                    "index" : 0,
                    "texCoord" : 0
                }
            }
        }
    ],
    "meshes" : [
        {
            "name" : "milk-vessel-low",
            "primitives" : [
                {
                    "attributes" : {
                        "NORMAL" : 1,
                        "POSITION" : 0,
                        "TEXCOORD_0" : 2
                    },
                    "indices" : 3,
                    "material" : 0
                }
            ]
        }
    ],
    "nodes" : [
        {
            "mesh" : 0,
            "name" : "milk-vessel-low",
            "rotation" : [
                0.7107228636741638,
                0,
                0,
                0.7034721374511719
            ]
        }
    ],
    "samplers" : [
        {
            "magFilter" : 9729,
            "minFilter" : 9986,
            "wrapS" : 10497,
            "wrapT" : 10497
        }
    ],
    "scene" : 0,
    "scenes" : [
        {
            "name" : "Scene",
            "nodes" : [
                0
            ]
        }
    ],
    "textures" : [
        {
            "sampler" : 0,
            "source" : 0
        }
    ]
}
