{"accessors":[{"bufferView":0,"componentType":5123,"count":125208,"max":[21549],"min":[0],"type":"SCALAR"},{"bufferView":1,"componentType":5126,"count":21550,"max":[9.244640350341797,3.2655398845672607,8.324210166931152],"min":[-10.90839958190918,-3.973660469055176,-8.297320365905762],"type":"VEC3"},{"bufferView":2,"componentType":5126,"count":21550,"max":[0.999237060546875,0.99993896484375,0.9998779296875],"min":[-0.999969482421875,-0.999969482421875,-0.999847412109375],"type":"VEC3"},{"bufferView":3,"componentType":5126,"count":21550,"max":[0.999819815158844,0.9998198656976456],"min":[0.00018013430235441774,0.227289617061615],"type":"VEC2"}],"asset":{"generator":"Khronos Blender glTF 2.0 exporter","version":"2.0"},"bufferViews":[{"buffer":0,"byteLength":250416,"byteOffset":0,"target":34963},{"buffer":0,"byteLength":258600,"byteOffset":250416,"target":34962},{"buffer":0,"byteLength":258600,"byteOffset":509016,"target":34962},{"buffer":0,"byteLength":172400,"byteOffset":767616,"target":34962}],"buffers":[{"byteLength":940016,"uri":"data:application/octet-stream;base64,"}],"images":[{"mimeType":"image/jpeg","name":"model_diffuse","uri":"data:image/jpeg;base64,"},{"mimeType":"image/jpeg","name":"wooden-bowl_normal","uri":"data:image/jpeg;base64,"}],"materials":[{"emissiveTexture":{"index":0},"name":"diffuse","pbrMetallicRoughness":{"baseColorFactor":[0.6400000190734865,0.6400000190734865,0.6400000190734865,1.0],"baseColorTexture":{"index":0},"metallicFactor":0.0}},{"name":"normals","normalTexture":{"index":1},"pbrMetallicRoughness":{"baseColorFactor":[0.6400000190734865,0.6400000190734865,0.6400000190734865,1.0],"metallicFactor":0.0}}],"meshes":[{"name":"wooden-bowl-optimised","primitives":[{"attributes":{"NORMAL":2,"POSITION":1,"TEXCOORD_0":3},"indices":0,"material":0}]}],"nodes":[{"mesh":0,"name":"wooden-bowl-optimised"}],"samplers":[{}],"scene":0,"scenes":[{"name":"Scene","nodes":[0]}],"textures":[{"sampler":0,"source":0},{"sampler":0,"source":1}]}
